<svg id="Layer_1" data-name="Layer 1" xmlns="http://www.w3.org/2000/svg" viewBox="0 0 512 512"><defs><style>.cls-1{fill:#222;}.cls-2{fill:#f9dbaa;}</style></defs><title>Artboard 1</title><rect class="cls-1" x="12.23" y="12.23" width="487.54" height="487.54" rx="98.38"/><path class="cls-2" d="M215.17,133q2.25,8.69-.64,26.05V180q.32,20.9.32,34.72,0,169.13-38.9,181.67a34.48,34.48,0,0,1-10.29,1.6q-6.75,0-17-2.89-9-2.9-18.33-5.79-7.72-1.92-15.76-3.85a42.76,42.76,0,0,1-13.82-5.79q-14.16-9.33-22.51-29.26a126.57,126.57,0,0,1-8-32.8q-1-8.69-1.61-17.36-4.5-10.92-3.21-15.43,2.89-10.29,13.5-11.58,8.68-1,24.76,2.57,19.29,4.19,22.83,10.94a10.24,10.24,0,0,1,1.29,5.14q0,.65-1,5.79a20.22,20.22,0,0,0,.32,6.43,150.23,150.23,0,0,0,4.5,31.19q4.19,17,9,17,9.64,0,11.89-92.28.33-18.33.33-115.75a18.07,18.07,0,0,0-1.29-5.79,22,22,0,0,1-1.29-4.18c0-2.78,1.56-5.63,4.67-8.52s6.27-4.55,9.48-5q8.69-1,27.65,2.25Q213.56,127.21,215.17,133Z"/><path class="cls-2" d="M426.41,263.55q-.32,4.5-7.55,11.09t-10.45,6.59a25.85,25.85,0,0,0-5.47.32v81q0-1,3.22,11.89,2.89,20.58-4.83,24.12a13.67,13.67,0,0,1-4.82.64q-11.26,0-28.94-8-19-8.35-23.15-16.72c-.21-1.93-.54-4.82-1-8.68-.43-1.5.32-3.53,2.25-6.11s2.89-4.18,2.89-4.82V289.91q-6.11.64-24.11,4.82t-23.8,6.43v65.28a9.89,9.89,0,0,0,2.09,5.3,14.82,14.82,0,0,1,2.42,4.66q-1.29,5.14-2.26,10-1,3.54-3.53,4.5-5.15,1.94-28.78-5.95t-24.92-12.7a22.49,22.49,0,0,1-.64-7.71,71.69,71.69,0,0,0,1-9V149.72q0-5.13,2.9-17.68.65-3.21,10.93-9a11,11,0,0,1,3.54-.33,89.47,89.47,0,0,1,25.08,3.86q17,5.15,18,13.51.31,2.89-2.73,10.93t-3.06,10.93V240.4q21.87-5.47,47.91-11.26V139.43a30,30,0,0,0-1.44-4.82q-1.46-4.17-.81-6.75,1.61-5.79,10.61-7.4,6.75-1,13.51-1.6,7.06-1,20.74,4.18T406.48,134c.42,1.72,0,4-1.29,6.75a25,25,0,0,0-2.25,9v88.75q1.6,1.92,15.11,13.82Q426.73,260,426.41,263.55Z"/></svg>